<svg width="124" height="124" viewBox="0 0 124 124" fill="none" xmlns="http://www.w3.org/2000/svg">
    <path d="M25.8847 41.6082C26.0213 41.8776 26.3066 42.7736 26.4189 43.1015C26.7548 44.1007 27.1026 45.0959 27.4621 46.0868C25.9135 46.7384 23.2891 47.0382 22.3039 48.4688C22.0284 48.8688 21.9799 49.7088 22.1277 50.1817C23.1461 53.4406 24.2397 56.6788 25.3 59.9253C27.1218 65.6203 28.973 71.3058 30.8539 76.9817C31.8713 80.0312 32.8726 83.086 33.8577 86.1462C34.2106 87.2366 34.5702 88.325 34.9364 89.4111C35.2999 90.4879 35.4645 91.5343 36.5403 92.0999C37.6475 92.682 38.9687 92.0237 40.0492 91.6521L43.2944 90.5457C47.6442 89.0738 52.0907 87.5137 56.4571 86.1059C60.4333 87.1541 63.8219 87.3196 67.8806 86.4088C68.6929 86.2266 69.6008 85.9081 70.3988 85.6525C70.1278 85.962 69.6306 86.4684 69.2779 86.6393C67.8687 87.3217 65.9864 87.9144 64.499 88.4297L45.8795 94.7504C43.8124 95.4704 41.739 96.1722 39.6594 96.8556C38.6952 97.1728 37.4891 97.6552 36.518 97.8027C34.1355 98.1645 32.2937 96.7452 31.5942 94.5697C30.5072 91.1882 29.4099 87.8798 28.3173 84.5375L21.5729 63.8973L18.3916 54.1744C17.999 53.0028 17.6135 51.829 17.2349 50.6528C17.046 50.0646 16.8426 49.4487 16.6881 48.8705C16.253 47.2423 17.0036 45.3636 18.3543 44.3828C19.3219 43.6801 20.8902 43.2674 22.0284 42.8885L25.8847 41.6082Z" fill="#2DD4BF"/>
    <path d="M99.9197 42.3539C101.274 42.84 102.671 43.2657 104.03 43.7551C105.972 44.4544 107.814 44.7456 108.845 46.7433C109.485 47.9815 109.478 49.1009 109.043 50.3922C107.888 53.8196 106.727 57.2464 105.575 60.6738L98.9411 80.5588L95.5452 90.8029C95.0645 92.2564 94.5838 93.7175 94.0952 95.1651C93.608 96.6081 93.0759 97.4345 91.7181 98.1449C89.8685 99.1128 88.417 98.4636 86.6119 97.8331L83.4107 96.725C78.9219 95.194 74.2897 93.5545 69.7879 92.0942C68.1014 91.4958 66.4064 90.922 64.7031 90.3732C66.9331 89.6191 69.5024 89.0571 71.1976 87.4809C74.8508 88.6308 78.8974 90.0463 82.5447 91.3058L85.7245 92.4145C86.7065 92.7559 87.9376 93.3621 88.9459 92.8974C89.5033 92.6406 89.9205 92.2015 90.1337 91.625C90.4804 90.6879 90.7934 89.7374 91.112 88.7898L92.8672 83.5149L97.825 68.5934L101.742 56.8438L102.998 53.13C103.501 51.6404 104.534 49.4857 102.767 48.4717C101.56 47.7786 99.7423 47.3887 98.4008 46.8629L99.9197 42.3539Z" fill="#FB923C"/>
    <path d="M88.1558 31.3864C88.685 31.3371 89.2187 31.3767 89.7349 31.5035C91.9449 32.0604 93.471 34.2051 93.4067 36.4606C93.3923 36.968 93.2925 37.3712 93.1655 37.861C94.6813 38.3471 96.3436 38.8729 97.8179 39.4821C98.7297 39.8588 98.8887 40.8111 98.5757 41.6871C97.9839 43.3437 97.5472 45.1623 96.8364 46.777C96.6544 47.1925 95.8218 47.5445 95.3823 47.4401C94.477 47.2514 93.5784 46.9049 92.6997 46.6061L87.6665 44.8737C86.9061 44.5678 85.7051 44.2088 84.9009 43.9362C83.1716 43.3324 81.4379 42.7414 79.6997 42.1637C78.0545 41.6124 74.9453 41.1548 75.8481 38.861C76.4978 37.2114 76.8823 35.3849 77.6548 33.7838C77.8342 33.4121 78.615 33.0524 79.0327 33.1471C80.6655 33.4931 82.3204 34.1315 83.9165 34.6686C84.7127 32.7325 86.0593 31.6283 88.1558 31.3864ZM90.5337 35.7926C90.3455 34.7345 89.344 34.022 88.2827 34.192C87.58 34.3046 86.9929 34.7881 86.7466 35.4557C86.5004 36.1235 86.6339 36.8718 87.0952 37.4137C87.5565 37.9555 88.2737 38.2063 88.9722 38.0699C90.0268 37.8637 90.7216 36.8507 90.5337 35.7926Z" fill="#FB923C"/>
    <path d="M36.7921 30.718C39.3966 30.5257 40.8474 31.749 41.8917 34.0188L41.9551 33.9954C42.7972 33.6757 43.6868 33.3729 44.543 33.095C46.0397 32.609 47.7919 31.6381 48.4864 33.7502C49.0348 35.4181 49.694 37.0669 50.0928 38.7737C50.1943 39.2079 49.7441 39.9904 49.3555 40.1946C48.3324 40.6535 47.2017 40.9773 46.1319 41.3342L39.1778 43.6575C36.2858 44.601 33.419 45.676 30.5049 46.5315C29.791 46.7497 28.8441 46.0667 28.7432 45.3499C28.5454 43.9451 25.9606 39.6288 27.9102 38.8C29.3056 38.207 31.2762 37.6186 32.6885 37.1555C32.621 36.8743 32.5402 36.5379 32.504 36.2542C32.3233 34.9299 32.6826 33.5881 33.501 32.5315C34.356 31.4338 35.4292 30.8898 36.7921 30.718ZM39.1534 34.9778C38.9133 33.9294 37.8704 33.2724 36.8214 33.509C35.7674 33.7467 35.1068 34.7956 35.3477 35.8489C35.589 36.9022 36.64 37.5593 37.6924 37.3147C38.74 37.0711 39.3935 36.0262 39.1534 34.9778Z" fill="#2DD4BF"/>
    <path d="M63.9819 42.5099C64.9018 42.6013 65.8469 42.6966 66.7515 42.8831C71.4331 43.8377 75.6361 46.3928 78.6385 50.1096C80.9479 52.9357 81.8184 55.1124 82.8632 58.5184C83.5457 58.4103 84.3327 58.2449 85.0199 58.2427C85.7095 58.2407 85.7448 58.8573 85.4935 59.3366C84.3621 61.2422 83.2394 63.2241 81.9726 65.04C81.7688 65.3388 81.3283 65.4584 81.035 65.2178C79.444 63.8707 77.9947 62.3334 76.437 60.9424C76.1379 60.675 75.8181 60.2642 75.6913 59.8951C75.8467 59.138 77.6595 59.1497 78.3428 59.0765C76.8105 53.446 72.645 49.1975 67.0134 47.5801C64.9341 46.9827 63.3137 46.9316 61.1825 47.047C61.5621 46.543 62.0513 45.646 62.3973 45.0668C62.9193 44.2106 63.4476 43.3583 63.9819 42.5099Z" fill="#2DD4BF"/>
    <path d="M42.6265 69.2446C41.88 69.3724 40.9011 69.6062 40.137 69.5457C39.8342 69.5217 39.7077 69.005 39.8214 68.7513C39.9832 68.3906 40.2284 68.0268 40.4356 67.6847C41.4771 66.0503 42.4204 64.3458 43.4849 62.7279C43.9034 62.0917 44.4421 62.4192 44.8624 62.8441C46.3835 64.3821 47.9614 65.8746 49.49 67.4027C50.39 68.3024 48.905 68.59 48.2832 68.6189C47.9351 68.644 47.4702 68.7392 47.1214 68.7926C49.4547 76.2828 56.195 80.9913 64.0651 80.4069C62.992 81.7925 62.1284 83.5951 61.1274 84.9188C57.8695 84.5506 55.0705 83.7621 52.2265 82.0682C47.4357 79.2547 43.9765 74.634 42.6265 69.2446Z" fill="#FB923C"/>
    <path d="M78.3263 68.5392C79.8692 68.5539 81.4122 68.5459 82.9546 68.515C82.0518 73.4874 78.5818 78.3816 74.4491 81.2445C71.1349 83.5711 67.2037 84.8595 63.1553 84.946C62.7526 84.9552 61.4729 84.9738 61.1274 84.9189C62.1285 83.5952 62.992 81.7926 64.0651 80.407C70.1682 80.0508 75.8353 75.5506 77.9216 69.8518C78.0734 69.4371 78.2405 68.974 78.3263 68.5392Z" fill="#FB923C"/>
    <path d="M42.5061 58.7698C43.3393 54.6069 45.8273 50.5071 48.9899 47.6913C53.096 44.0334 58.4935 42.1679 63.982 42.5099C63.4476 43.3583 62.9194 44.2107 62.3973 45.0668C62.0514 45.646 61.5621 46.543 61.1825 47.047C58.7072 47.3562 56.7422 47.8936 54.5405 49.1618C50.9808 51.2123 48.1768 54.7439 47.1174 58.7305C45.5715 58.7382 44.0588 58.7925 42.5061 58.7698Z" fill="#2DD4BF"/>
    <path d="M68.0496 31.8091C69.3794 31.698 74.2562 33.5413 75.8728 34.1097L74.3683 38.6471C73.9638 38.5107 73.4929 38.3196 73.0841 38.2125C71.4491 37.7838 70.0371 36.6026 68.4627 37.7729C67.7527 38.4706 67.4501 39.8649 67.1447 40.8442C65.5886 40.4811 63.8001 40.3786 62.2078 40.3909C62.8519 38.7266 63.8938 34.7096 64.8255 33.511C65.641 32.4621 66.7585 31.9716 68.0496 31.8091Z" fill="#FB923C"/>
    <path d="M57.309 31.2039C58.988 31.1385 60.475 32.0042 61.3105 33.4529C61.6401 34.0244 61.7993 34.6277 61.9856 35.2545C61.7195 36.1316 61.3105 37.1014 61.0173 37.9866C60.7338 38.8429 60.4588 39.7164 60.1498 40.5609C59.6911 40.6217 59.2336 40.6915 58.7775 40.7701C58.4436 39.5614 58.0063 37.7621 57.0752 36.9905C56.98 36.9344 56.8823 36.8823 56.7827 36.8348C55.6774 36.3026 54.4385 36.9077 53.351 37.2879C52.7034 37.512 52.0544 37.7323 51.4041 37.9483C50.9534 36.432 50.4679 34.9263 49.9478 33.4324C51.5135 32.8848 53.1181 32.4077 54.6893 31.872C55.5566 31.5763 56.3914 31.2872 57.309 31.2039Z" fill="#2DD4BF"/>
    <path d="M44.0359 50.076L44.0854 50.0842L44.1113 50.1522C43.5168 50.8804 43.093 51.7694 42.6165 52.5906C41.8603 52.909 40.6441 53.2861 39.8303 53.5639L35.0058 55.2051C33.2433 55.7941 31.4707 56.4388 29.6997 56.9944C29.3445 57.1058 29.1969 57.0119 28.8943 56.8367C27.6247 55.2637 29.7749 54.9047 30.8348 54.5433L34.0539 53.4488C37.3744 52.3043 40.7018 51.1801 44.0359 50.076Z" fill="#2DD4BF"/>
    <path d="M81.8648 51.0433C82.9629 51.3539 84.3908 51.8891 85.5023 52.2711L91.2757 54.2375L94.8679 55.4754C96.0351 55.8797 97.7774 56.0944 96.8762 57.6842C96.584 57.9314 96.379 58.0365 95.9889 57.9133C94.6041 57.4757 93.2281 56.9932 91.853 56.5236L83.2384 53.5937C82.8036 52.5787 82.437 51.9669 81.8648 51.0433Z" fill="#FB923C"/>
    <path d="M40.2756 59.5847L40.3023 59.6075C40.3542 59.7757 40.2566 61.3633 40.2486 61.6535L34.9837 63.4556C34.0714 63.7694 33.1482 64.0995 32.2281 64.3862C31.8138 64.5153 31.7246 64.4764 31.3728 64.277C30.993 63.7938 30.7454 63.0032 31.4486 62.6558C32.155 62.3459 32.9159 62.0797 33.6529 61.8461C35.8579 61.1473 38.067 60.2513 40.2756 59.5847Z" fill="#2DD4BF"/>
    <path d="M87.3184 60.2249C87.6695 60.3795 88.6083 60.667 89.0008 60.8009L92.5815 62.036C93.1345 62.2285 93.8681 62.4421 94.3734 62.7095C95.2482 63.1724 95.0113 64.3485 94.0271 64.5968C93.6975 64.5101 93.2986 64.3663 92.9753 64.2488C90.7877 63.4537 88.5 62.796 86.3354 61.952C86.7112 61.3651 86.9911 60.8378 87.3184 60.2249Z" fill="#FB923C"/>
    <path d="M85.0742 66.8707L89.8225 68.5119C90.6336 68.7901 91.5619 69.0579 92.3229 69.4368C92.965 69.7566 92.627 70.577 92.3386 71.0039C92.2694 71.0466 92.199 71.0873 92.1273 71.1258C91.6203 71.3931 89.9005 70.6195 89.2742 70.4114C87.8166 69.9268 86.3735 69.3768 84.9022 68.925C84.992 68.2433 85.0493 67.5578 85.0742 66.8707Z" fill="#FB923C"/>
    <path d="M83.1137 74.2136C83.9348 74.5061 84.7585 74.7912 85.5846 75.0694C86.8825 75.5109 88.681 76.0557 89.9329 76.6288C90.6384 76.9518 90.3313 78.111 89.434 78.4414C88.6578 78.2355 87.5865 77.8374 86.8075 77.573C85.2536 77.0538 83.7055 76.5176 82.1633 75.9645C82.5427 75.3685 82.7979 74.844 83.1137 74.2136Z" fill="#FB923C"/>
    <path d="M42.1455 74.4141L42.242 74.4009C42.3976 74.5071 43.076 75.828 43.2351 76.119C41.0397 76.8654 38.8399 77.5985 36.6357 78.3184C36.1998 78.3768 35.8991 78.2685 35.6805 77.8462C34.9347 76.4064 36.9911 76.1446 38.0959 75.7774C39.4481 75.33 40.798 74.8756 42.1455 74.4141Z" fill="#2DD4BF"/>
    <path d="M37.6511 68.5446C37.7659 68.6282 37.7116 68.8094 37.6932 68.9656C37.625 69.5429 37.8312 69.9618 38.0777 70.466C37.2619 70.7439 34.6596 71.7247 33.9744 71.6802C33.1389 71.1528 33.0649 70.187 34.0283 69.8009C35.197 69.3325 36.4548 68.9569 37.6511 68.5446Z" fill="#2DD4BF"/>
</svg>
